# xmcd CD database file
#
# Track frame offsets:
#	150
#	14470
#	31370
#	49792
#	80192
#	93385
#	113080
#	125722
#	149232
#	169900
#	186260
#	201837
#
# Disc length: 3191 seconds
#
# Revision: 0
# Processed by: cddbd v1.4PL0 Copyright (c) Steve Scherf et al.
# Submitted via: Feurio! 1.65 - http://www.feurio.com
#
DISCID=b40c750c
DTITLE=Roger Hurricane Wilson - Hurricane Blues
DYEAR=1994
DGENRE=
TTITLE0=Caught In Between
TTITLE1=You Ain't Foolin'
TTITLE2=I Want You To Rock Me
TTITLE3=Hurricane Blues
TTITLE4=Love's Quicksand
TTITLE5=Take Out Some Insurance
TTITLE6=Serious Blues
TTITLE7=Heart Of Stone
TTITLE8=Georgia Springtime
TTITLE9=Gimme That Good Ol' Rock and Roll
TTITLE10=Listen To My Heart
TTITLE11=The Quest
EXTD=
EXTT0=
EXTT1=
EXTT2=
EXTT3=
EXTT4=
EXTT5=
EXTT6=
EXTT7=
EXTT8=
EXTT9=
EXTT10=
EXTT11=
PLAYORDER=
